<svg width="537" height="410" viewBox="0 0 537 410" fill="none" xmlns="http://www.w3.org/2000/svg">
<rect y="169.864" width="166" height="240" rx="20" fill="#545454"/>
<g filter="url(#filter0_b_43_178)">
<path d="M133.489 37.9767C134.12 34.2801 137.551 31.7368 141.271 32.2092L205.5 40.3643C205.5 40.3643 197.5 41.8643 190.5 52.8643C189.454 54.5077 184 64.8643 186 64.3643C196.391 66.0772 216 68.3643 238.5 70.8643C258.903 73.2538 282 76.8643 303 78.8643C304.803 79.036 303.293 71.3955 300.5 64.3643C297.872 57.7479 294 51.3643 294 51.3643L360.705 58.9123C365.272 59.4291 368.465 63.6789 367.691 68.2094L319.426 350.593C318.348 356.904 312.505 361.257 306.149 360.484L91.4483 334.377C86.9131 333.826 83.7598 329.595 84.5278 325.091L133.489 37.9767Z" fill="#D9D9D9" fill-opacity="0.3"/>
</g>
<path d="M205.5 113.364L250.5 118.364M263 120.364L293 123.364M203.5 124.864L269 132.864" stroke="white"/>
<path d="M301.51 218.516C317.365 238.229 339.665 251.719 364.485 256.612C389.305 261.505 415.056 257.488 437.206 245.267C459.357 233.047 476.488 213.406 485.586 189.801C494.683 166.195 495.164 140.138 486.944 116.212C478.725 92.2871 462.33 72.0273 440.646 58.9974C418.962 45.9675 393.377 41.0025 368.393 44.9758C343.409 48.9492 320.627 61.6063 304.055 80.7203C287.483 99.8343 278.182 124.181 277.79 149.475L338.058 150.41C338.23 139.298 342.316 128.602 349.596 120.206C356.876 111.809 366.885 106.248 377.86 104.503C388.836 102.757 400.075 104.939 409.601 110.663C419.127 116.387 426.329 125.287 429.94 135.797C433.551 146.308 433.339 157.755 429.343 168.125C425.346 178.494 417.82 187.123 408.09 192.491C398.359 197.859 387.047 199.624 376.143 197.475C365.24 195.325 355.444 189.399 348.478 180.739L301.51 218.516Z" fill="#C3C3C3"/>
<path d="M198 159.864L243 164.864M255.5 166.864L285.5 169.864M196 171.364L261.5 179.364" stroke="white"/>
<path d="M187 210.864L232 215.864M244.5 217.864L274.5 220.864M185 222.364L250.5 230.364" stroke="white"/>
<path d="M183 255.864L228 260.864M240.5 262.864L270.5 265.864M181 267.364L246.5 275.364" stroke="white"/>
<path d="M166 115.864L171.5 121.364L185 110.864" stroke="white"/>
<path d="M84.7183 329.219C85.6935 332.197 88.7185 333.237 90.5 333.364C159.5 342.031 299.3 359.464 306.5 359.864C313.7 360.264 317.833 354.698 319 351.864C334.333 262.031 365.4 80.1643 367 71.3643C368.6 62.5643 364.333 59.6976 361.5 59.3643C365.333 59.6976 374 65.8643 369.5 87.8643L322.5 358.364C321.667 361.031 318.6 366.264 313 365.864C307.4 365.464 164 347.698 93 338.864C90.4532 338.015 85.8162 335.004 84.7183 329.219C84.4162 328.297 84.3108 327.189 84.5 325.864C84.4396 327.073 84.5229 328.19 84.7183 329.219Z" fill="#191919"/>
<path d="M84.5 325.864C83.7 331.464 88.1667 333.198 90.5 333.364C159.5 342.031 299.3 359.464 306.5 359.864C313.7 360.264 317.833 354.698 319 351.864C334.333 262.031 365.4 80.1643 367 71.3643C368.6 62.5643 364.333 59.6976 361.5 59.3643M84.5 325.864C85.3 320.264 116.833 134.531 132.5 42.3643C132.667 38.6976 135 31.6643 143 32.8643C146.218 33.347 171.01 36.3808 204 40.3776M84.5 325.864C84.1 333.864 90 337.864 93 338.864C164 347.698 307.4 365.464 313 365.864C318.6 366.264 321.667 361.031 322.5 358.364L369.5 87.8643C374 65.8643 365.333 59.6976 361.5 59.3643M361.5 59.3643L293 51.3643" stroke="white"/>
<path d="M161.617 103.569C162.059 101.236 164.239 99.648 166.596 99.9426L184.756 102.213C187.298 102.53 189.062 104.904 188.634 107.43L185.319 126.989C184.912 129.391 182.669 131.032 180.257 130.694L161.764 128.098C159.219 127.741 157.49 125.328 157.969 122.803L161.617 103.569Z" stroke="white"/>
<path d="M303.5 78.8643L185.5 64.3643C185.167 64.1976 189.5 52.8643 193.5 48.3643C203.026 37.6472 222 35.1976 231.5 36.3643C227 31.3643 230.679 16.9472 232 13.8643C236.5 3.3643 247 1.3643 254.5 1.86429C268.5 2.79762 274.5 12.8643 275.5 20.3643C276.3 26.3643 274 38.1976 272 41.8643C294.4 41.8643 303.667 66.531 303.5 78.8643Z" stroke="white"/>
<circle cx="252" cy="20.8643" r="7.5" stroke="white"/>
<path d="M157 164.864L162.5 170.364L176 159.864" stroke="white"/>
<path d="M154.117 151.569C154.559 149.236 156.739 147.648 159.096 147.943L177.256 150.213C179.798 150.53 181.562 152.904 181.134 155.43L177.819 174.989C177.412 177.391 175.169 179.032 172.757 178.694L154.264 176.098C151.719 175.741 149.99 173.328 150.469 170.803L154.117 151.569Z" stroke="white"/>
<path d="M144.117 201.569C144.559 199.236 146.739 197.648 149.096 197.943L167.256 200.213C169.798 200.53 171.562 202.904 171.134 205.43L167.819 224.989C167.412 227.391 165.169 229.032 162.757 228.694L144.264 226.098C141.719 225.741 139.99 223.328 140.469 220.803L144.117 201.569Z" stroke="white"/>
<path d="M137.117 251.569C137.559 249.236 139.739 247.648 142.096 247.943L160.256 250.213C162.798 250.53 164.562 252.904 164.134 255.43L160.819 274.989C160.412 277.391 158.169 279.032 155.757 278.694L137.264 276.098C134.719 275.741 132.99 273.328 133.469 270.803L137.117 251.569Z" stroke="white"/>
<defs>
<filter id="filter0_b_43_178" x="80.4125" y="28.1528" width="291.394" height="336.42" filterUnits="userSpaceOnUse" color-interpolation-filters="sRGB">
<feFlood flood-opacity="0" result="BackgroundImageFix"/>
<feGaussianBlur in="BackgroundImageFix" stdDeviation="2"/>
<feComposite in2="SourceAlpha" operator="in" result="effect1_backgroundBlur_43_178"/>
<feBlend mode="normal" in="SourceGraphic" in2="effect1_backgroundBlur_43_178" result="shape"/>
</filter>
</defs>
</svg>
